<?xml version="1.0" encoding="UTF-8"?>
<svg width="1200pt" height="1200pt" version="1.1" viewBox="0 0 1200 1200" xmlns="http://www.w3.org/2000/svg">
 <g fill-rule="evenodd">
  <path d="m980.42 928.07c-7.0469-9.7773-18.367-15.574-30.422-15.574h-700c-12.055 0-23.375 5.7969-30.422 15.574-7.0469 9.7773-8.9648 22.352-5.1523 33.785l50 150c5.1016 15.312 19.434 25.641 35.574 25.641h600c16.141 0 30.469-10.328 35.574-25.641l50-150c3.8125-11.434 1.8945-24.008-5.1523-33.785zm-82.453 59.426-25 75h-545.94l-25-75z"/>
  <path d="m987.5 350c0-20.711-16.789-37.5-37.5-37.5h-100c-17.211 0-32.203 11.711-36.379 28.406l-31.066 124.25c-6.9531 27.82-31.953 47.34-60.633 47.34h-71.922c-103.55 0-187.5 83.945-187.5 187.5v84.465l-139.02 139.02c-14.645 14.645-14.645 38.387 0 53.031s38.387 14.645 53.031 0l150-150c7.0352-7.0312 10.984-16.57 10.984-26.516v-100c0-62.129 50.371-112.5 112.5-112.5h71.922c63.094 0 118.09-42.941 133.39-104.15l23.965-95.848h33.219v12.5c0 20.711 16.789 37.5 37.5 37.5s37.5-16.789 37.5-37.5zm-37.5 200c-20.711 0-37.5 16.789-37.5 37.5v12.5c0 19.672-9.2617 38.195-25 50l-122.16 91.621c-37.148 27.863-46.066 79.895-20.305 118.54l73.766 110.64c11.484 17.234 34.77 21.891 52 10.398 17.234-11.484 21.891-34.77 10.398-52l-73.758-110.64c-3.6797-5.5195-2.4102-12.953 2.8984-16.934l122.16-91.621c34.625-25.965 55-66.719 55-110v-12.5c0-20.711-16.789-37.5-37.5-37.5z"/>
  <path d="m968.75 163.43c-52.688-61.707-131.14-100.93-218.75-100.93-88.613 0-167.86 40.121-220.55 103.06-9.5391-2.0078-19.383-3.0625-29.449-3.0625-95.859 0-162.5 90.641-162.5 187.5 0 20.711 16.789 37.5 37.5 37.5h725c20.711 0 37.5-16.789 37.5-37.5 0-97.227-74.004-177.17-168.75-186.57zm-218.75-25.926c69.5 0 131.2 33.324 170.04 85.023 7.0781 9.4258 18.184 14.977 29.98 14.977 48.973 0.007812 90.641 31.309 106.09 75h-638.73c12.793-46.797 48.703-75 82.625-75 9.7852 0 19.219 2.0859 28.141 6.043 16.543 7.3398 35.98 1.8125 46.184-13.141 38.32-56.164 102.71-92.902 175.68-92.902z"/>
  <path d="m356.1 562.5h-212.2c15.441-43.695 57.113-75 106.1-75s90.656 31.305 106.1 75zm81.402 37.5c0-103.55-83.945-187.5-187.5-187.5s-187.5 83.945-187.5 187.5c0 20.711 16.789 37.5 37.5 37.5h300c20.711 0 37.5-16.789 37.5-37.5z"/>
  <path d="m192.07 582.04c-9.918 18.18-3.2188 40.961 14.965 50.875l275 150c18.184 9.9219 40.961 3.2227 50.879-14.965 9.9141-18.18 3.2148-40.961-14.965-50.875l-275-150c-18.184-9.918-40.961-3.2188-50.879 14.965z"/>
 </g>
</svg>
