<?xml version="1.0" encoding="UTF-8"?>
<svg width="1200pt" height="1200pt" version="1.1" viewBox="0 0 1200 1200" xmlns="http://www.w3.org/2000/svg">
 <path d="m638.77 1152.8c-5.3359 20.016 6.5625 40.559 26.574 45.898 20.012 5.3359 40.559-6.5625 45.895-26.57l82.578-309.66h368.69c20.711 0 37.5-16.789 37.5-37.5s-16.789-37.5-37.5-37.5h-348.69l100-375h248.69c20.711 0 37.5-16.789 37.5-37.5s-16.789-37.5-37.5-37.5h-228.69l77.426-290.34c5.3398-20.012-6.5625-40.562-26.57-45.898-20.012-5.3359-40.559 6.5625-45.898 26.57l-82.574 309.66h-372.38l77.426-290.34c5.3398-20.012-6.5625-40.562-26.57-45.898-20.012-5.3359-40.559 6.5625-45.898 26.57l-82.574 309.66h-368.69c-20.711 0-37.5 16.789-37.5 37.5s16.789 37.5 37.5 37.5h348.69l-100 375h-248.69c-20.711 0-37.5 16.789-37.5 37.5s16.789 37.5 37.5 37.5h228.69l-77.426 290.34c-5.3359 20.016 6.5625 40.559 26.574 45.898 20.012 5.3359 40.559-6.5625 45.895-26.57l82.578-309.66h372.38zm97.426-365.34 100-375h-372.38l-100 375z" fill-rule="evenodd"/>
</svg>
