<?xml version="1.0" encoding="UTF-8"?>
<svg width="1200pt" height="1200pt" version="1.1" viewBox="0 0 1200 1200" xmlns="http://www.w3.org/2000/svg">
 <g>
  <path d="m1031.3 412.5c0 62.156-50.344 112.5-112.5 112.5s-112.5-50.344-112.5-112.5c0-62.109 50.344-112.5 112.5-112.5s112.5 50.391 112.5 112.5z"/>
  <path d="m721.4 664.82 48.047 300.32c4.9219 30.656 33.75 51.562 64.453 46.641 30.656-4.9219 51.562-33.75 46.641-64.453l-65.578-409.92c-10.266-64.031-72.703-105.89-135.84-91.031l-191.86 45.141c-67.969 15.984-111 82.969-97.312 151.4 5.625 27.938 20.25 53.25 41.719 72l103.12 90.281-44.391 133.26c-9.8438 29.438 6.0938 61.312 35.531 71.109 29.484 9.8438 61.359-6.0938 71.156-35.578l56.25-168.74c7.1719-21.469 0.75-45.188-16.312-60.094l-50.484-44.203z"/>
  <path d="m406.97 743.16c-10.781-9.4219-20.203-20.109-28.125-31.781l-17.156 111.38-195.84 81.562c-28.641 11.953-42.234 44.906-30.281 73.594 11.953 28.641 44.906 42.234 73.594 30.281l225-93.75c18.094-7.5469 30.938-24 33.938-43.406l10.078-65.531z"/>
 </g>
</svg>
