<?xml version="1.0" encoding="UTF-8"?>
<svg width="1200pt" height="1200pt" version="1.1" viewBox="0 0 1200 1200" xmlns="http://www.w3.org/2000/svg">
 <g>
  <path d="m0 1200h550v-550h-550zm100-450h350v350h-350z"/>
  <path d="m925 650c-72.934 0-142.88 28.973-194.45 80.547-51.574 51.57-80.547 121.52-80.547 194.45s28.973 142.88 80.547 194.45c51.57 51.574 121.52 80.547 194.45 80.547s142.88-28.973 194.45-80.547c51.574-51.57 80.547-121.52 80.547-194.45-0.13281-72.895-29.148-142.77-80.691-194.31-51.543-51.543-121.41-80.559-194.31-80.691zm0 450c-46.414 0-90.926-18.438-123.74-51.258-32.82-32.816-51.258-77.328-51.258-123.74s18.438-90.926 51.258-123.74c32.816-32.82 77.328-51.258 123.74-51.258s90.926 18.438 123.74 51.258c32.82 32.816 51.258 77.328 51.258 123.74 0 30.719-8.0859 60.898-23.445 87.5-15.359 26.602-37.453 48.695-64.055 64.055-26.602 15.359-56.781 23.445-87.5 23.445z"/>
  <path d="m600 5.5-340.5 544.5h680.5zm0 189 159.5 255.5h-319.5z"/>
 </g>
</svg>
