<?xml version="1.0" encoding="UTF-8"?>
<svg width="1200pt" height="1200pt" version="1.1" viewBox="0 0 1200 1200" xmlns="http://www.w3.org/2000/svg">
 <g>
  <path d="m464.14 681.11c44.664 8.5859 90.375 12.938 135.86 12.938s91.199-4.3516 135.86-12.938c28.461-5.4375 49.164-30.488 49.164-59.551v-17.289c0-58.051-32.551-108.11-79.988-134.59 22.613-25.164 36.789-58.051 36.789-94.461 0-78.188-63.637-141.82-141.82-141.82s-141.82 63.637-141.82 141.82c0 36.414 14.176 69.301 36.789 94.461-47.438 26.477-79.988 76.539-79.988 134.59v17.289c-0.003907 29.102 20.695 54.148 49.156 59.551zm135.86-380.18c40.988 0 74.289 33.336 74.289 74.289 0 41.023-33.336 74.324-74.289 74.324-40.949 0-74.289-33.336-74.289-74.324 0-40.953 33.301-74.289 74.289-74.289zm-117.49 303.34c0-48.074 39.113-87.148 87.188-87.148h60.562c48.074 0 87.188 39.074 87.188 87.148v11.625c-77.363 14.137-157.54 14.137-234.98 0l0.003906-11.625z"/>
  <path d="m798.19 762.79h-396.38c-18.637 0-33.75 15.113-33.75 33.75 0 18.637 15.113 33.75 33.75 33.75h396.38c18.637 0 33.75-15.113 33.75-33.75 0-18.641-15.113-33.75-33.75-33.75z"/>
  <path d="m798.19 899.06h-396.38c-18.637 0-33.75 15.113-33.75 33.75s15.113 33.75 33.75 33.75h396.38c18.637 0 33.75-15.113 33.75-33.75s-15.113-33.75-33.75-33.75z"/>
  <path d="m938.25 41.25h-676.5c-80.625 0-146.25 65.625-146.25 146.25v825c0 80.625 65.625 146.25 146.25 146.25h676.5c80.625 0 146.25-65.625 146.25-146.25v-825c0-80.625-65.625-146.25-146.25-146.25zm78.711 971.25c0 43.426-35.289 78.75-78.75 78.75h-676.46c-43.426 0-78.75-35.289-78.75-78.75v-825c0-43.426 35.289-78.75 78.75-78.75h676.5c43.426 0 78.75 35.289 78.75 78.75v825z"/>
 </g>
</svg>
